<svg width="79" height="44" viewBox="0 0 79 44" fill="none" xmlns="http://www.w3.org/2000/svg">
<path d="M0.0426136 23L3.66477 1.18182H19.0057L18.196 5.95455H8.77841L8.18182 9.70454H16.6619L15.8523 14.4773H7.37216L5.96591 23H0.0426136ZM40.4457 12.4744C40.0479 14.8466 39.2596 16.8352 38.0806 18.4403C36.9016 20.0455 35.4705 21.2564 33.7873 22.0732C32.104 22.8899 30.3036 23.2983 28.386 23.2983C26.3406 23.2983 24.565 22.8544 23.0593 21.9666C21.5536 21.0788 20.4563 19.7791 19.7674 18.0675C19.0785 16.3558 18.94 14.2642 19.3519 11.7926C19.7354 9.42045 20.5167 7.42472 21.6957 5.8054C22.8746 4.18608 24.3129 2.96094 26.0103 2.12997C27.7077 1.29901 29.5224 0.883522 31.4542 0.883522C33.4854 0.883522 35.2504 1.33097 36.7489 2.22585C38.2546 3.12074 39.3484 4.43111 40.0302 6.15696C40.7191 7.88281 40.8576 9.98864 40.4457 12.4744ZM34.4798 11.7926C34.6786 10.5426 34.6928 9.49148 34.5224 8.6392C34.3519 7.77983 33.9933 7.13352 33.4464 6.70028C32.8995 6.25994 32.1644 6.03977 31.2411 6.03977C30.19 6.03977 29.2596 6.29545 28.4499 6.80682C27.6403 7.31818 26.9691 8.05327 26.4364 9.01207C25.9038 9.97088 25.5309 11.125 25.3178 12.4744C25.0906 13.7386 25.0692 14.7898 25.2539 15.6278C25.4457 16.4659 25.8221 17.0945 26.3832 17.5135C26.9513 17.9325 27.69 18.142 28.5991 18.142C29.636 18.142 30.5522 17.8935 31.3477 17.3963C32.1502 16.8991 32.8143 16.1783 33.3398 15.2337C33.8725 14.2891 34.2525 13.142 34.4798 11.7926ZM64.3226 12.4744C63.9249 14.8466 63.1365 16.8352 61.9576 18.4403C60.7786 20.0455 59.3475 21.2564 57.6642 22.0732C55.981 22.8899 54.1806 23.2983 52.263 23.2983C50.2175 23.2983 48.4419 22.8544 46.9363 21.9666C45.4306 21.0788 44.3333 19.7791 43.6444 18.0675C42.9554 16.3558 42.8169 14.2642 43.2289 11.7926C43.6124 9.42045 44.3936 7.42472 45.5726 5.8054C46.7516 4.18608 48.1898 2.96094 49.8873 2.12997C51.5847 1.29901 53.3993 0.883522 55.3311 0.883522C57.3624 0.883522 59.1273 1.33097 60.6259 2.22585C62.1316 3.12074 63.2253 4.43111 63.9071 6.15696C64.5961 7.88281 64.7346 9.98864 64.3226 12.4744ZM58.3567 11.7926C58.5556 10.5426 58.5698 9.49148 58.3993 8.6392C58.2289 7.77983 57.8702 7.13352 57.3233 6.70028C56.7765 6.25994 56.0414 6.03977 55.1181 6.03977C54.0669 6.03977 53.1365 6.29545 52.3269 6.80682C51.5172 7.31818 50.8461 8.05327 50.3134 9.01207C49.7807 9.97088 49.4078 11.125 49.1948 12.4744C48.9675 13.7386 48.9462 14.7898 49.1309 15.6278C49.3226 16.4659 49.699 17.0945 50.2601 17.5135C50.8283 17.9325 51.5669 18.142 52.476 18.142C53.513 18.142 54.4292 17.8935 55.2246 17.3963C56.0272 16.8991 56.6912 16.1783 57.2168 15.2337C57.7495 14.2891 58.1294 13.142 58.3567 11.7926ZM0.0426136 43L3.66477 21.1818H19.0057L18.196 25.9545H8.77841L8.18182 29.7045H16.6619L15.8523 34.4773H7.37216L5.96591 43H0.0426136ZM17.5621 43L21.1843 21.1818H36.9087L36.0991 25.9545H26.2979L25.7013 29.7045H34.6928L33.8832 34.4773H24.8917L24.2951 38.2273H34.0536L33.244 43H17.5621ZM50.4572 28C50.5211 27.2969 50.3507 26.7464 49.9458 26.3487C49.541 25.9439 48.8592 25.7415 47.9004 25.7415C47.2896 25.7415 46.7782 25.8125 46.3663 25.9545C45.9615 26.0966 45.6454 26.2919 45.4181 26.5405C45.198 26.7891 45.0595 27.0767 45.0027 27.4034C44.9387 27.6591 44.9423 27.8935 45.0133 28.1065C45.0914 28.3125 45.237 28.5007 45.4501 28.6712C45.6703 28.8416 45.9579 28.9943 46.313 29.1293C46.6752 29.2642 47.1049 29.3849 47.6021 29.4915L49.3066 29.875C50.4714 30.1307 51.448 30.468 52.2363 30.8871C53.0318 31.299 53.6568 31.7891 54.1113 32.3572C54.5659 32.9254 54.8642 33.5611 55.0062 34.2642C55.1554 34.9673 55.1589 35.7344 55.0169 36.5653C54.7754 38 54.2179 39.2145 53.3443 40.2088C52.4707 41.2031 51.3308 41.9595 49.9245 42.478C48.5183 42.9964 46.8919 43.2557 45.0453 43.2557C43.1561 43.2557 41.551 42.9751 40.2299 42.4141C38.916 41.8459 37.9643 40.9794 37.3748 39.8146C36.7924 38.6428 36.6504 37.1477 36.9487 35.3295H42.5737C42.4885 35.9972 42.5595 36.5582 42.7868 37.0128C43.014 37.4673 43.3798 37.8118 43.8841 38.0462C44.3883 38.2805 45.0169 38.3977 45.7697 38.3977C46.4089 38.3977 46.9558 38.3196 47.4103 38.1634C47.8649 38.0071 48.2235 37.7905 48.4863 37.5135C48.7491 37.2365 48.9089 36.9205 48.9657 36.5653C49.0225 36.2386 48.9657 35.9474 48.7953 35.6918C48.6248 35.4361 48.3159 35.2053 47.8684 34.9993C47.421 34.7933 46.8066 34.6051 46.0254 34.4347L43.9373 33.9659C42.0836 33.5398 40.6845 32.8366 39.7399 31.8565C38.7953 30.8764 38.4615 29.5341 38.7385 27.8295C38.9657 26.4375 39.5375 25.223 40.4537 24.1861C41.377 23.142 42.5488 22.3324 43.9693 21.7571C45.3968 21.1747 46.9771 20.8835 48.7101 20.8835C50.4714 20.8835 51.9451 21.1783 53.1312 21.7678C54.3244 22.3572 55.1802 23.1847 55.6987 24.25C56.2243 25.3153 56.3663 26.5653 56.1248 28H50.4572ZM58.4206 25.9545L59.2303 21.1818H78.1934L77.3837 25.9545H70.8212L68.0087 43H62.1706L64.9831 25.9545H58.4206Z" fill="#00FF1A"/>
</svg>
