<svg width="48" height="44" viewBox="0 0 48 44" fill="none" xmlns="http://www.w3.org/2000/svg">
<path d="M24.2292 21.2762C26.893 20.2069 26.0939 16.4641 24.2292 14.8601C21.2991 12.454 17.0371 13.7907 15.1724 16.9988C11.1768 23.4149 17.5698 30.3657 24.2292 30.0984C31.4214 29.5637 35.6834 22.3456 34.0851 15.6621C32.2205 7.64195 23.6965 3.63187 16.2379 6.03792C9.31216 8.17663 5.05014 15.3948 5.58289 22.6129C6.38202 30.6331 12.5087 37.0492 20.2336 38.3859C27.6921 39.7226 35.417 36.2472 39.4127 29.8311C41.2773 26.8903 42.6092 23.4149 42.6092 19.6722C42.6092 18.3355 43.9411 16.9988 45.5393 17.2661C47.6703 17.2661 48.2031 19.4048 47.9367 21.0089C46.8712 33.5738 35.9498 44 23.1637 44C7.44753 44 -4.80578 27.425 1.85363 12.454C8.51303 -1.98224 29.2904 -4.92296 37.2817 9.24598C41.2773 15.9294 40.4782 24.7516 34.8843 30.3657C29.5567 35.7125 20.7663 36.7819 14.3733 32.2371C8.51303 27.9597 6.6484 19.1375 11.4432 12.9887C15.9716 6.83993 26.0939 6.57259 30.0895 13.5234C33.0196 18.6028 30.0895 27.425 23.4301 26.623C19.1681 26.623 15.4388 22.0782 17.8362 18.0682C19.4345 15.6621 22.8973 16.4641 23.9628 18.3355C24.4956 20.4742 24.2292 21.2762 24.2292 21.2762Z" fill="#00FF1A"/>
</svg>
